# xmcd
#
# Track frame offsets:
#	150
#	18317
#	32897
#	49392
#	64410
#	79920
#	95977
#
# Disc length: 1509
#
# Revision: 1
# Processed by: cddbd v1.5.1PL0 Copyright (c) Steve Scherf et al.
# Submitted via: uFREEDB 1.6.0
# Normalized: r0:TDELIM( - )
#
DISCID=6205e307
DTITLE=Various Artist - CDX Vol 2
DYEAR=1991
DGENRE=Country
TTITLE0=Dan Seals - Ball And Chain
TTITLE1=Steve Douglas - Every Night It Hurts A Little Less
TTITLE2=Pam Tillis - One Of Those Things
TTITLE3=Cee Cee Chapman - Pretending To Cry
TTITLE4=Rob Crosby - She's A Natural
TTITLE5=Billy Dean - Somewhere In My Broken Heart
TTITLE6=James Blundell - The Blue Healer
EXTD=
EXTT0=
EXTT1=
EXTT2=
EXTT3=
EXTT4=
EXTT5=
EXTT6=
PLAYORDER=
